<?xml version="1.0" encoding="UTF-8" standalone="no"?>
<!-- Created with Inkscape (http://www.inkscape.org/) -->

<svg
   width="116.21878mm"
   height="168.41707mm"
   viewBox="0 0 116.21878 168.41707"
   version="1.1"
   id="svg5"
   inkscape:version="1.1 (c4e8f9ed74, 2021-05-24)"
   sodipodi:docname="logo.svg"
   xmlns:inkscape="http://www.inkscape.org/namespaces/inkscape"
   xmlns:sodipodi="http://sodipodi.sourceforge.net/DTD/sodipodi-0.dtd"
   xmlns="http://www.w3.org/2000/svg"
   xmlns:svg="http://www.w3.org/2000/svg">
  <sodipodi:namedview
     id="namedview7"
     pagecolor="#505050"
     bordercolor="#ffffff"
     borderopacity="1"
     inkscape:pageshadow="0"
     inkscape:pageopacity="0"
     inkscape:pagecheckerboard="1"
     inkscape:document-units="mm"
     showgrid="false"
     inkscape:snap-bbox="true"
     inkscape:snap-bbox-edge-midpoints="true"
     inkscape:snap-bbox-midpoints="true"
     inkscape:bbox-nodes="true"
     inkscape:bbox-paths="true"
     inkscape:zoom="0.53199738"
     inkscape:cx="313.91132"
     inkscape:cy="373.12214"
     inkscape:window-width="1920"
     inkscape:window-height="1040"
     inkscape:window-x="0"
     inkscape:window-y="40"
     inkscape:window-maximized="1"
     inkscape:current-layer="layer1" />
  <defs
     id="defs2">
    <rect
       x="200.13075"
       y="623.04645"
       width="473.25778"
       height="261.66223"
       id="rect9216" />
  </defs>
  <g
     inkscape:label="Layer 1"
     inkscape:groupmode="layer"
     id="layer1"
     transform="translate(-42.105021,-80.321739)">
    <g
       id="g38459"
       transform="translate(-1.981914)">
      <path
         style="fill:#3edd00;fill-opacity:1;stroke:none;stroke-width:0.264583px;stroke-linecap:butt;stroke-linejoin:miter;stroke-opacity:1"
         d="m 54.857656,80.331202 c 0,0 37.29506,0.0327 41.175585,-0.009 3.88052,-0.0417 8.759679,2.73803 8.746059,6.91875 -0.0136,4.18072 0.0381,59.881448 0.0381,59.881448 0,0 -1.15495,-6.96923 -10.211389,-6.96837 -9.056438,8.7e-4 -40.947893,0.0796 -40.947893,0.0796 z"
         id="path1313"
         sodipodi:nodetypes="czzczcc" />
      <path
         style="fill:#3edd00;fill-opacity:1;stroke:none;stroke-width:0.264583px;stroke-linecap:butt;stroke-linejoin:miter;stroke-opacity:1"
         d="m 159.10617,80.331202 c 0,0 -37.29506,0.0327 -41.17558,-0.009 -3.88052,-0.0417 -8.75968,2.73803 -8.74606,6.91875 0.0136,4.18072 -0.0381,59.881448 -0.0381,59.881448 0,0 1.15495,-6.96923 10.21139,-6.96837 9.05643,8.7e-4 40.94789,0.0796 40.94789,0.0796 z"
         id="path1313-5"
         sodipodi:nodetypes="czzczcc" />
    </g>
    <g
       id="g58222"
       transform="matrix(1.0472356,0,0,1.0472356,-7.4785709,-12.201969)">
      <path
         style="fill:#5a5a5b;fill-opacity:1;stroke:none;stroke-width:0.782822px;stroke-linecap:butt;stroke-linejoin:miter;stroke-opacity:1"
         d="m 56.34787,234.5408 c -0.05858,3.83453 -6.693584,3.22552 -9.000748,2.54845 v 11.77361 c 0,0 6.050037,0.64772 8.989416,0.0651 3.850244,-0.76299 8.07,-1.80117 10.852598,-4.5695 1.825991,-1.81662 3.031513,-4.50415 3.035152,-7.10609 l 0.07989,-56.99147 c 0,-2.4019 -1.130194,-3.39771 -2.941302,-3.39771 -1.811109,0 -10.82162,-0.0237 -10.82162,-0.0237 0,0 -0.134621,53.86566 -0.193204,57.7002 z"
         id="path38758"
         sodipodi:nodetypes="zccaaszzczz" />
      <path
         style="fill:#5a5a5b;fill-opacity:1;stroke:none;stroke-width:0.782822px;stroke-linecap:butt;stroke-linejoin:miter;stroke-opacity:1"
         d="m 108.11434,192.24548 13.19136,-0.18107 c 0,0 -1.05395,-16.82423 -22.4507,-16.82423 -21.396781,0 -24.108399,9.77625 -24.108399,17.47804 0.03373,16.90655 34.137529,12.03505 33.890919,22.73722 -0.16184,4.64513 -3.25226,6.88638 -10.625601,6.94079 -10.148162,0 -11.076749,-8.66 -11.076749,-8.66 l -13.254529,-0.0737 c 0,0 1.140963,18.00336 24.160501,17.82398 23.019568,-0.1793 25.236938,-11.80584 25.141638,-18.91852 -0.26776,-20.41059 -32.692002,-8.85701 -34.030014,-22.69393 0.228411,-3.86856 2.091741,-5.44138 8.873879,-5.59706 10.718565,-0.27783 10.287695,7.96851 10.287695,7.96851 z"
         id="path43833"
         sodipodi:nodetypes="cczccccczccccc" />
      <path
         style="fill:#5a5a5b;fill-opacity:1;stroke:none;stroke-width:0.782822px;stroke-linecap:butt;stroke-linejoin:miter;stroke-opacity:1"
         d="m 125.51569,229.9507 v -53.79983 c -0.0852,-3.94995 -1.20339,-4.71895 -5.39279,-4.71895 H 56.595158 l -0.107401,-13.68673 101.836093,-0.3728 -0.16007,13.82911 -14.46247,0.17841 c -3.6821,0 -4.23233,1.6087 -4.23233,4.89922 v 53.5845 z"
         id="path50119"
         sodipodi:nodetypes="ccccccccccc" />
    </g>
  </g>
</svg>
